<?xml version="1.0"?>
<!-- Generated by SVGo -->
<svg width="390" height="260"
     xmlns="http://www.w3.org/2000/svg"
     xmlns:xlink="http://www.w3.org/1999/xlink">
<defs>
<marker id="self-defined-arrow-marker" markerUnits="userSpaceOnUse" refX="0.000" refY="4.000" markerWidth="8.000" markerHeight="8.000" fill="black" orient="auto" >
<path d="M 0 0 L 8.000 4.000 L 0 8.000 Z" />
</marker>
</defs>
<rect x="0" y="0" width="390" height="260" style="fill:#eeffff" />
<g transform="translate(195.000,40.000)" >
<circle style="fill:black;stroke:black;stroke-width:1" cx="-40.000" cy="60.000" r="20.000" />
<text style="text-anchor:middle;font-size:14;fill:white" dy="4.667" x="-40.000" y="60.000" >
2</text>
<circle style="fill:black;stroke:black;stroke-width:1" cx="0.000" cy="0.000" r="20.000" />
<text style="text-anchor:middle;font-size:14;fill:white" dy="4.667" x="0.000" y="0.000" >
1</text>
<line style="stroke-width:2;stroke:black" marker-end="url(#self-defined-arrow-marker)" x1="-11.094" y1="16.641" x2="-24.468" y2="36.703" />
<line style="stroke-width:2;stroke:black" marker-end="url(#self-defined-arrow-marker)" x1="11.094" y1="16.641" x2="24.468" y2="36.703" />
<circle style="fill:red;stroke:black;stroke-width:1" cx="-80.000" cy="180.000" r="20.000" />
<text style="text-anchor:middle;font-size:14;fill:white" dy="4.667" x="-80.000" y="180.000" >
6</text>
<circle style="fill:black;stroke:black;stroke-width:1" cx="-40.000" cy="120.000" r="20.000" />
<text style="text-anchor:middle;font-size:14;fill:white" dy="4.667" x="-40.000" y="120.000" >
4</text>
<line style="stroke-width:2;stroke:black" marker-end="url(#self-defined-arrow-marker)" x1="-51.094" y1="136.641" x2="-64.468" y2="156.703" />
<line style="stroke-width:2;stroke:black" marker-end="url(#self-defined-arrow-marker)" x1="-28.906" y1="136.641" x2="-15.532" y2="156.703" />
<circle style="fill:red;stroke:black;stroke-width:1" cx="0.000" cy="180.000" r="20.000" />
<text style="text-anchor:middle;font-size:14;fill:white" dy="4.667" x="0.000" y="180.000" >
7</text>
<circle style="fill:red;stroke:black;stroke-width:1" cx="40.000" cy="60.000" r="20.000" />
<text style="text-anchor:middle;font-size:14;fill:white" dy="4.667" x="40.000" y="60.000" >
3</text>
<line style="stroke-width:2;stroke:black" marker-end="url(#self-defined-arrow-marker)" x1="24.000" y1="72.000" x2="-17.600" y2="103.200" />
<line style="stroke-width:2;stroke:black" marker-end="url(#self-defined-arrow-marker)" x1="56.000" y1="72.000" x2="97.600" y2="103.200" />
<circle style="fill:red;stroke:black;stroke-width:1" cx="80.000" cy="180.000" r="20.000" />
<text style="text-anchor:middle;font-size:14;fill:white" dy="4.667" x="80.000" y="180.000" >
8</text>
<circle style="fill:black;stroke:black;stroke-width:1" cx="120.000" cy="120.000" r="20.000" />
<text style="text-anchor:middle;font-size:14;fill:white" dy="4.667" x="120.000" y="120.000" >
5</text>
<line style="stroke-width:2;stroke:black" marker-end="url(#self-defined-arrow-marker)" x1="108.906" y1="136.641" x2="95.532" y2="156.703" />
<line style="stroke-width:2;stroke:black" marker-end="url(#self-defined-arrow-marker)" x1="131.094" y1="136.641" x2="144.468" y2="156.703" />
<circle style="fill:red;stroke:black;stroke-width:1" cx="160.000" cy="180.000" r="20.000" />
<text style="text-anchor:middle;font-size:14;fill:white" dy="4.667" x="160.000" y="180.000" >
9</text>
</g>
</svg>
